<svg width="42" height="8" viewBox="0 0 42 8" fill="none" xmlns="http://www.w3.org/2000/svg">
<g filter="url(#filter0_i_2_16)">
<path d="M0.96733 7V0.454545H1.93892V1.44318H2.0071C2.12642 1.11932 2.34233 0.856534 2.65483 0.654829C2.96733 0.453125 3.3196 0.352272 3.71165 0.352272C3.78551 0.352272 3.87784 0.353693 3.98864 0.356534C4.09943 0.359375 4.18324 0.363636 4.24006 0.369318V1.39205C4.20597 1.38352 4.12784 1.37074 4.00568 1.35369C3.88636 1.33381 3.75994 1.32386 3.62642 1.32386C3.30824 1.32386 3.02415 1.39062 2.77415 1.52415C2.52699 1.65483 2.33097 1.83665 2.18608 2.0696C2.04403 2.29972 1.97301 2.5625 1.97301 2.85795V7H0.96733ZM7.97727 7.13636C7.34659 7.13636 6.80256 6.99716 6.34517 6.71875C5.89062 6.4375 5.53977 6.04545 5.29261 5.54261C5.0483 5.03693 4.92614 4.44886 4.92614 3.77841C4.92614 3.10795 5.0483 2.51705 5.29261 2.00568C5.53977 1.49148 5.88352 1.09091 6.32386 0.803977C6.76705 0.514205 7.28409 0.369318 7.875 0.369318C8.21591 0.369318 8.55256 0.426136 8.88494 0.539772C9.21733 0.653409 9.51989 0.838068 9.79261 1.09375C10.0653 1.34659 10.2827 1.68182 10.4446 2.09943C10.6065 2.51705 10.6875 3.03125 10.6875 3.64205V4.06818H5.64205V3.19886H9.66477C9.66477 2.82955 9.59091 2.5 9.44318 2.21023C9.2983 1.92045 9.09091 1.69176 8.82102 1.52415C8.55398 1.35653 8.23864 1.27273 7.875 1.27273C7.47443 1.27273 7.12784 1.37216 6.83523 1.57102C6.54545 1.76705 6.32244 2.02273 6.16619 2.33807C6.00994 2.65341 5.93182 2.99148 5.93182 3.35227V3.93182C5.93182 4.42614 6.01705 4.84517 6.1875 5.18892C6.3608 5.52983 6.60085 5.78977 6.90767 5.96875C7.21449 6.14489 7.57102 6.23295 7.97727 6.23295C8.24148 6.23295 8.48011 6.19602 8.69318 6.12216C8.90909 6.04545 9.09517 5.93182 9.25142 5.78125C9.40767 5.62784 9.52841 5.4375 9.61364 5.21023L10.5852 5.48295C10.483 5.8125 10.3111 6.10227 10.0696 6.35227C9.82813 6.59943 9.52983 6.79261 9.17472 6.93182C8.8196 7.06818 8.42045 7.13636 7.97727 7.13636Z" fill="#587B8E"/>
<path d="M16.8537 1.92045L15.9503 2.17614C15.8935 2.02557 15.8097 1.87926 15.6989 1.73722C15.5909 1.59233 15.4432 1.47301 15.2557 1.37926C15.0682 1.28551 14.8281 1.23864 14.5355 1.23864C14.1349 1.23864 13.8011 1.33097 13.5341 1.51562C13.2699 1.69744 13.1378 1.92898 13.1378 2.21023C13.1378 2.46023 13.2287 2.65767 13.4105 2.80256C13.5923 2.94744 13.8764 3.06818 14.2628 3.16477L15.2344 3.40341C15.8196 3.54545 16.2557 3.76278 16.5426 4.0554C16.8295 4.34517 16.973 4.71875 16.973 5.17614C16.973 5.55114 16.8651 5.88636 16.6491 6.18182C16.4361 6.47727 16.1378 6.71023 15.7543 6.88068C15.3707 7.05114 14.9247 7.13636 14.4162 7.13636C13.7486 7.13636 13.196 6.99148 12.7585 6.7017C12.321 6.41193 12.044 5.98864 11.9276 5.43182L12.8821 5.19318C12.973 5.54545 13.1449 5.80966 13.3977 5.9858C13.6534 6.16193 13.9872 6.25 14.3991 6.25C14.8679 6.25 15.2401 6.15057 15.5156 5.9517C15.794 5.75 15.9332 5.50852 15.9332 5.22727C15.9332 5 15.8537 4.80966 15.6946 4.65625C15.5355 4.5 15.2912 4.38352 14.9616 4.30682L13.8707 4.05114C13.2713 3.90909 12.831 3.68892 12.5497 3.39062C12.2713 3.08949 12.1321 2.71307 12.1321 2.26136C12.1321 1.89205 12.2358 1.56534 12.4432 1.28125C12.6534 0.997159 12.9389 0.774148 13.2997 0.612216C13.6634 0.450284 14.0753 0.369318 14.5355 0.369318C15.1832 0.369318 15.6918 0.511364 16.0611 0.795454C16.4332 1.07955 16.6974 1.45455 16.8537 1.92045ZM22.6119 4.32386V0.454545H23.6175V7H22.6119V5.89205H22.5437C22.3903 6.22443 22.1516 6.5071 21.8278 6.74006C21.5039 6.97017 21.0948 7.08523 20.6005 7.08523C20.1914 7.08523 19.8278 6.99574 19.5096 6.81676C19.1914 6.63494 18.9414 6.36222 18.7596 5.99858C18.5778 5.6321 18.4869 5.17045 18.4869 4.61364V0.454545H19.4925V4.54545C19.4925 5.02273 19.6261 5.40341 19.8931 5.6875C20.163 5.97159 20.5067 6.11364 20.9244 6.11364C21.1744 6.11364 21.4286 6.04972 21.6871 5.92188C21.9485 5.79403 22.1673 5.59801 22.3434 5.33381C22.5224 5.0696 22.6119 4.73295 22.6119 4.32386ZM25.4595 7V0.454545H26.4311V1.47727H26.5163C26.6527 1.12784 26.8729 0.856534 27.1768 0.663352C27.4808 0.46733 27.8459 0.369318 28.272 0.369318C28.7038 0.369318 29.0632 0.46733 29.3501 0.663352C29.6399 0.856534 29.8658 1.12784 30.0277 1.47727H30.0959C30.2635 1.1392 30.5149 0.870739 30.8501 0.671875C31.1854 0.47017 31.5874 0.369318 32.0561 0.369318C32.6413 0.369318 33.12 0.552557 33.4922 0.919034C33.8643 1.28267 34.0504 1.84943 34.0504 2.61932V7H33.0447V2.61932C33.0447 2.13636 32.9126 1.79119 32.6484 1.58381C32.3842 1.37642 32.0732 1.27273 31.7152 1.27273C31.255 1.27273 30.8984 1.41193 30.6456 1.69034C30.3928 1.96591 30.2663 2.31534 30.2663 2.73864V7H29.2436V2.51705C29.2436 2.14489 29.1229 1.84517 28.8814 1.6179C28.6399 1.38778 28.3288 1.27273 27.9482 1.27273C27.6868 1.27273 27.4425 1.34233 27.2152 1.48153C26.9908 1.62074 26.8089 1.81392 26.6697 2.06108C26.5334 2.3054 26.4652 2.58807 26.4652 2.90909V7H25.4595ZM38.6335 7.13636C38.0028 7.13636 37.4588 6.99716 37.0014 6.71875C36.5469 6.4375 36.196 6.04545 35.9489 5.54261C35.7045 5.03693 35.5824 4.44886 35.5824 3.77841C35.5824 3.10795 35.7045 2.51705 35.9489 2.00568C36.196 1.49148 36.5398 1.09091 36.9801 0.803977C37.4233 0.514205 37.9403 0.369318 38.5312 0.369318C38.8722 0.369318 39.2088 0.426136 39.5412 0.539772C39.8736 0.653409 40.1761 0.838068 40.4489 1.09375C40.7216 1.34659 40.9389 1.68182 41.1009 2.09943C41.2628 2.51705 41.3438 3.03125 41.3438 3.64205V4.06818H36.2983V3.19886H40.321C40.321 2.82955 40.2472 2.5 40.0994 2.21023C39.9545 1.92045 39.7472 1.69176 39.4773 1.52415C39.2102 1.35653 38.8949 1.27273 38.5312 1.27273C38.1307 1.27273 37.7841 1.37216 37.4915 1.57102C37.2017 1.76705 36.9787 2.02273 36.8224 2.33807C36.6662 2.65341 36.5881 2.99148 36.5881 3.35227V3.93182C36.5881 4.42614 36.6733 4.84517 36.8438 5.18892C37.017 5.52983 37.2571 5.78977 37.5639 5.96875C37.8707 6.14489 38.2273 6.23295 38.6335 6.23295C38.8977 6.23295 39.1364 6.19602 39.3494 6.12216C39.5653 6.04545 39.7514 5.93182 39.9077 5.78125C40.0639 5.62784 40.1847 5.4375 40.2699 5.21023L41.2415 5.48295C41.1392 5.8125 40.9673 6.10227 40.7259 6.35227C40.4844 6.59943 40.1861 6.79261 39.831 6.93182C39.4759 7.06818 39.0767 7.13636 38.6335 7.13636Z" fill="#74C3F0"/>
</g>
<defs>
<filter id="filter0_i_2_16" x="0.967316" y="0.352295" width="40.3764" height="10.7841" filterUnits="userSpaceOnUse" color-interpolation-filters="sRGB">
<feFlood flood-opacity="0" result="BackgroundImageFix"/>
<feBlend mode="normal" in="SourceGraphic" in2="BackgroundImageFix" result="shape"/>
<feColorMatrix in="SourceAlpha" type="matrix" values="0 0 0 0 0 0 0 0 0 0 0 0 0 0 0 0 0 0 127 0" result="hardAlpha"/>
<feOffset dy="4"/>
<feGaussianBlur stdDeviation="2"/>
<feComposite in2="hardAlpha" operator="arithmetic" k2="-1" k3="1"/>
<feColorMatrix type="matrix" values="0 0 0 0 0 0 0 0 0 0 0 0 0 0 0 0 0 0 0.25 0"/>
<feBlend mode="normal" in2="shape" result="effect1_innerShadow_2_16"/>
</filter>
</defs>
</svg>
